<svg xmlns="http://www.w3.org/2000/svg" viewBox="0 0 2020 1010" width="2020" height="1010" font-family="Inter, -apple-system, BlinkMacSystemFont, 'Segoe UI', Roboto, Helvetica, Arial, sans-serif">
<defs>
<linearGradient id="g0" x1="0" y1="0" x2="0.6" y2="1"><stop offset="0" stop-color="#d1542e"/><stop offset="1" stop-color="#8c2f1f"/></linearGradient>
<linearGradient id="g1" x1="0" y1="0" x2="0.6" y2="1"><stop offset="0" stop-color="#c98a3c"/><stop offset="1" stop-color="#7a4a1e"/></linearGradient>
<linearGradient id="g2" x1="0" y1="0" x2="0.6" y2="1"><stop offset="0" stop-color="#6b4a34"/><stop offset="1" stop-color="#2b1f1a"/></linearGradient>
<linearGradient id="g3" x1="0" y1="0" x2="0.6" y2="1"><stop offset="0" stop-color="#ff9d70"/><stop offset="1" stop-color="#c9502f"/></linearGradient>
<linearGradient id="g4" x1="0" y1="0" x2="0.6" y2="1"><stop offset="0" stop-color="#4fae72"/><stop offset="1" stop-color="#1f5c3a"/></linearGradient>
<linearGradient id="g5" x1="0" y1="0" x2="0.6" y2="1"><stop offset="0" stop-color="#d1497a"/><stop offset="1" stop-color="#7a1f3d"/></linearGradient>
<linearGradient id="g6" x1="0" y1="0" x2="0.6" y2="1"><stop offset="0" stop-color="#d1a83c"/><stop offset="1" stop-color="#7a5a1e"/></linearGradient>
<linearGradient id="g7" x1="0" y1="0" x2="0.6" y2="1"><stop offset="0" stop-color="#aec93c"/><stop offset="1" stop-color="#5f7a1e"/></linearGradient>
<linearGradient id="hero" x1="0" y1="0" x2="0.5" y2="1"><stop offset="0" stop-color="#ff9d70"/><stop offset="1" stop-color="#c9502f"/></linearGradient>
<radialGradient id="sheen" cx="0.3" cy="0.22" r="0.7"><stop offset="0" stop-color="#ffffff" stop-opacity="0.28"/><stop offset="1" stop-color="#ffffff" stop-opacity="0"/></radialGradient>
<linearGradient id="glass" x1="0.05" y1="0" x2="0.75" y2="1"><stop offset="0" stop-color="#ffffff" stop-opacity="0.24"/><stop offset="0.6" stop-color="#ffffff" stop-opacity="0"/></linearGradient>
<clipPath id="scr0"><rect x="62" y="142" width="376" height="786" rx="38"/></clipPath>
<clipPath id="scr1"><rect x="557" y="142" width="376" height="786" rx="38"/></clipPath>
<clipPath id="scr2"><rect x="1052" y="142" width="376" height="786" rx="38"/></clipPath>
<clipPath id="scr3"><rect x="1547" y="142" width="376" height="786" rx="38"/></clipPath>
</defs>
<rect width="2020" height="1010" fill="#faf9f7"/>
<text x="250.0" y="96" fill="#8a8e99" font-size="15" letter-spacing="2.4" text-anchor="middle">CATALOGUE</text>
<rect x="50" y="130" width="400" height="810" rx="50" fill="#161618"/>
<rect x="62" y="142" width="376" height="786" rx="38" fill="#141416"/>
<g clip-path="url(#scr0)">
<rect x="192.0" y="158" width="116" height="34" rx="17" fill="#0a0a0b"/>
<text x="92" y="184" fill="#f5f5f7" font-size="17" font-weight="600">9:41</text>
<rect x="354" y="176" width="4" height="4" rx="1.4" fill="#f5f5f7"/>
<rect x="360" y="173" width="4" height="7" rx="1.4" fill="#f5f5f7"/>
<rect x="366" y="170" width="4" height="10" rx="1.4" fill="#f5f5f7"/>
<rect x="372" y="167" width="4" height="13" rx="1.4" fill="#f5f5f7"/>
<path d="M384 176 a11 11 0 0 1 15 0 M388 171 a5.5 5.5 0 0 1 7 0" fill="none" stroke="#f5f5f7" stroke-width="2.2" stroke-linecap="round"/>
<rect x="406" y="168" width="26" height="13" rx="4" fill="none" stroke="#f5f5f7" stroke-opacity=".55" stroke-width="1.6"/>
<rect x="408.5" y="170.5" width="19" height="8" rx="2.2" fill="#f5f5f7"/>
<text x="84" y="254" fill="#f5f5f7" font-size="34" font-weight="700">Carte</text>
<rect x="84" y="278" width="332" height="50" rx="14" fill="#232326"/>
<circle cx="110" cy="303" r="7.5" fill="none" stroke="#8e8e93" stroke-width="2"/>
<line x1="115.5" y1="308.5" x2="120" y2="313" stroke="#8e8e93" stroke-width="2" stroke-linecap="round"/>
<text x="132" y="309" fill="#8e8e93" font-size="17">Rechercher un cocktail</text>
<rect x="84" y="342" width="332" height="48" rx="13" fill="#202023"/>
<rect x="87.0" y="345" width="160.0" height="42" rx="11" fill="#3d1c2c"/>
<text x="167.0" y="372" fill="#ff5fa2" font-size="15.5" font-weight="600" text-anchor="middle">Avec alcool</text>
<text x="333.0" y="372" fill="#8e8e93" font-size="15.5" font-weight="400" text-anchor="middle">Sans alcool</text>
<rect x="84.0" y="410" width="158.0" height="200" rx="16" fill="#1f1f22"/>
<path d="M84.0 426 a16 16 0 0 1 16 -16 h126.0 a16 16 0 0 1 16 16 v122 h-158.0 z" fill="url(#g0)"/>
<path d="M84.0 426 a16 16 0 0 1 16 -16 h126.0 a16 16 0 0 1 16 16 v122 h-158.0 z" fill="url(#glass)"/>
<text x="98.0" y="566" fill="#f5f5f7" font-size="15.5" font-weight="600">Negroni</text>
<text x="98.0" y="590" fill="#8e8e93" font-size="14.5">7,50 €</text>
<rect x="258.0" y="410" width="158.0" height="200" rx="16" fill="#1f1f22"/>
<path d="M258.0 426 a16 16 0 0 1 16 -16 h126.0 a16 16 0 0 1 16 16 v122 h-158.0 z" fill="url(#g1)"/>
<path d="M258.0 426 a16 16 0 0 1 16 -16 h126.0 a16 16 0 0 1 16 16 v122 h-158.0 z" fill="url(#glass)"/>
<text x="272.0" y="566" fill="#f5f5f7" font-size="15.5" font-weight="600">Old Fashioned</text>
<text x="272.0" y="590" fill="#8e8e93" font-size="14.5">8,00 €</text>
<rect x="84.0" y="624" width="158.0" height="200" rx="16" fill="#1f1f22"/>
<path d="M84.0 640 a16 16 0 0 1 16 -16 h126.0 a16 16 0 0 1 16 16 v122 h-158.0 z" fill="url(#g2)"/>
<path d="M84.0 640 a16 16 0 0 1 16 -16 h126.0 a16 16 0 0 1 16 16 v122 h-158.0 z" fill="url(#glass)"/>
<text x="98.0" y="780" fill="#f5f5f7" font-size="15.5" font-weight="600">Espresso Martini</text>
<text x="98.0" y="804" fill="#8e8e93" font-size="14.5">9,00 €</text>
<rect x="258.0" y="624" width="158.0" height="200" rx="16" fill="#1f1f22"/>
<path d="M258.0 640 a16 16 0 0 1 16 -16 h126.0 a16 16 0 0 1 16 16 v122 h-158.0 z" fill="url(#g3)"/>
<path d="M258.0 640 a16 16 0 0 1 16 -16 h126.0 a16 16 0 0 1 16 16 v122 h-158.0 z" fill="url(#glass)"/>
<text x="272.0" y="780" fill="#f5f5f7" font-size="15.5" font-weight="600">Aperol Spritz</text>
<text x="272.0" y="804" fill="#8e8e93" font-size="14.5">7,00 €</text>
<rect x="62" y="836" width="376" height="92" fill="#161619"/>
<line x1="62" y1="836" x2="438" y2="836" stroke="#2a2a2e" stroke-width="1"/>
<rect x="117.66666666666666" y="859" width="8" height="8" rx="2" fill="#ff5fa2"/>
<rect x="127.66666666666666" y="859" width="8" height="8" rx="2" fill="#ff5fa2"/>
<rect x="117.66666666666666" y="869" width="8" height="8" rx="2" fill="#ff5fa2"/>
<rect x="127.66666666666666" y="869" width="8" height="8" rx="2" fill="#ff5fa2"/>
<text x="124.66666666666666" y="898" fill="#ff5fa2" font-size="12.5" text-anchor="middle">Carte</text>
<circle cx="248.0" cy="864" r="8" fill="none" stroke="#8e8e93" stroke-width="2.4"/>
<line x1="254.0" y1="870" x2="259.0" y2="875" stroke="#8e8e93" stroke-width="2.4" stroke-linecap="round"/>
<text x="250.0" y="898" fill="#8e8e93" font-size="12.5" text-anchor="middle">Recherche</text>
<rect x="366.3333333333333" y="857" width="18" height="18" rx="3.5" fill="none" stroke="#8e8e93" stroke-width="2.2"/>
<line x1="371.3333333333333" y1="863" x2="379.3333333333333" y2="863" stroke="#8e8e93" stroke-width="1.8" stroke-linecap="round"/>
<line x1="371.3333333333333" y1="867" x2="379.3333333333333" y2="867" stroke="#8e8e93" stroke-width="1.8" stroke-linecap="round"/>
<line x1="371.3333333333333" y1="871" x2="379.3333333333333" y2="871" stroke="#8e8e93" stroke-width="1.8" stroke-linecap="round"/>
<text x="375.3333333333333" y="898" fill="#8e8e93" font-size="12.5" text-anchor="middle">Commande</text>
<rect x="182.0" y="912" width="136" height="5" rx="2.5" fill="#ffffff" fill-opacity=".32"/>
</g>
<text x="745.0" y="96" fill="#8a8e99" font-size="15" letter-spacing="2.4" text-anchor="middle">FILTRES ACTIFS</text>
<rect x="545" y="130" width="400" height="810" rx="50" fill="#161618"/>
<rect x="557" y="142" width="376" height="786" rx="38" fill="#141416"/>
<g clip-path="url(#scr1)">
<rect x="687.0" y="158" width="116" height="34" rx="17" fill="#0a0a0b"/>
<text x="587" y="184" fill="#f5f5f7" font-size="17" font-weight="600">9:41</text>
<rect x="849" y="176" width="4" height="4" rx="1.4" fill="#f5f5f7"/>
<rect x="855" y="173" width="4" height="7" rx="1.4" fill="#f5f5f7"/>
<rect x="861" y="170" width="4" height="10" rx="1.4" fill="#f5f5f7"/>
<rect x="867" y="167" width="4" height="13" rx="1.4" fill="#f5f5f7"/>
<path d="M879 176 a11 11 0 0 1 15 0 M883 171 a5.5 5.5 0 0 1 7 0" fill="none" stroke="#f5f5f7" stroke-width="2.2" stroke-linecap="round"/>
<rect x="901" y="168" width="26" height="13" rx="4" fill="none" stroke="#f5f5f7" stroke-opacity=".55" stroke-width="1.6"/>
<rect x="903.5" y="170.5" width="19" height="8" rx="2.2" fill="#f5f5f7"/>
<text x="579" y="254" fill="#f5f5f7" font-size="34" font-weight="700">Carte</text>
<rect x="579" y="278" width="332" height="50" rx="14" fill="#232326"/>
<circle cx="605" cy="303" r="7.5" fill="none" stroke="#8e8e93" stroke-width="2"/>
<line x1="610.5" y1="308.5" x2="615" y2="313" stroke="#8e8e93" stroke-width="2" stroke-linecap="round"/>
<text x="627" y="309" fill="#8e8e93" font-size="17">Rechercher un cocktail</text>
<rect x="579" y="342" width="332" height="48" rx="13" fill="#202023"/>
<text x="662.0" y="372" fill="#8e8e93" font-size="15.5" font-weight="400" text-anchor="middle">Avec alcool</text>
<rect x="748.0" y="345" width="160.0" height="42" rx="11" fill="#3d1c2c"/>
<text x="828.0" y="372" fill="#ff5fa2" font-size="15.5" font-weight="600" text-anchor="middle">Sans alcool</text>
<rect x="579.0" y="410" width="158.0" height="200" rx="16" fill="#1f1f22"/>
<path d="M579.0 426 a16 16 0 0 1 16 -16 h126.0 a16 16 0 0 1 16 16 v122 h-158.0 z" fill="url(#g4)"/>
<path d="M579.0 426 a16 16 0 0 1 16 -16 h126.0 a16 16 0 0 1 16 16 v122 h-158.0 z" fill="url(#glass)"/>
<text x="593.0" y="566" fill="#f5f5f7" font-size="15.5" font-weight="600">Virgin Mojito</text>
<text x="593.0" y="590" fill="#8e8e93" font-size="14.5">5,50 €</text>
<rect x="753.0" y="410" width="158.0" height="200" rx="16" fill="#1f1f22"/>
<path d="M753.0 426 a16 16 0 0 1 16 -16 h126.0 a16 16 0 0 1 16 16 v122 h-158.0 z" fill="url(#g5)"/>
<path d="M753.0 426 a16 16 0 0 1 16 -16 h126.0 a16 16 0 0 1 16 16 v122 h-158.0 z" fill="url(#glass)"/>
<text x="767.0" y="566" fill="#f5f5f7" font-size="15.5" font-weight="600">Nojito Framboise</text>
<text x="767.0" y="590" fill="#8e8e93" font-size="14.5">5,50 €</text>
<rect x="579.0" y="624" width="158.0" height="200" rx="16" fill="#1f1f22"/>
<path d="M579.0 640 a16 16 0 0 1 16 -16 h126.0 a16 16 0 0 1 16 16 v122 h-158.0 z" fill="url(#g6)"/>
<path d="M579.0 640 a16 16 0 0 1 16 -16 h126.0 a16 16 0 0 1 16 16 v122 h-158.0 z" fill="url(#glass)"/>
<text x="593.0" y="780" fill="#f5f5f7" font-size="15.5" font-weight="600">Ginger Fizz</text>
<text x="593.0" y="804" fill="#8e8e93" font-size="14.5">5,00 €</text>
<rect x="753.0" y="624" width="158.0" height="200" rx="16" fill="#1f1f22"/>
<path d="M753.0 640 a16 16 0 0 1 16 -16 h126.0 a16 16 0 0 1 16 16 v122 h-158.0 z" fill="url(#g7)"/>
<path d="M753.0 640 a16 16 0 0 1 16 -16 h126.0 a16 16 0 0 1 16 16 v122 h-158.0 z" fill="url(#glass)"/>
<text x="767.0" y="780" fill="#f5f5f7" font-size="15.5" font-weight="600">Citrus Cooler</text>
<text x="767.0" y="804" fill="#8e8e93" font-size="14.5">5,00 €</text>
<rect x="557" y="836" width="376" height="92" fill="#161619"/>
<line x1="557" y1="836" x2="933" y2="836" stroke="#2a2a2e" stroke-width="1"/>
<rect x="612.6666666666666" y="859" width="8" height="8" rx="2" fill="#ff5fa2"/>
<rect x="622.6666666666666" y="859" width="8" height="8" rx="2" fill="#ff5fa2"/>
<rect x="612.6666666666666" y="869" width="8" height="8" rx="2" fill="#ff5fa2"/>
<rect x="622.6666666666666" y="869" width="8" height="8" rx="2" fill="#ff5fa2"/>
<text x="619.6666666666666" y="898" fill="#ff5fa2" font-size="12.5" text-anchor="middle">Carte</text>
<circle cx="743.0" cy="864" r="8" fill="none" stroke="#8e8e93" stroke-width="2.4"/>
<line x1="749.0" y1="870" x2="754.0" y2="875" stroke="#8e8e93" stroke-width="2.4" stroke-linecap="round"/>
<text x="745.0" y="898" fill="#8e8e93" font-size="12.5" text-anchor="middle">Recherche</text>
<rect x="861.3333333333333" y="857" width="18" height="18" rx="3.5" fill="none" stroke="#8e8e93" stroke-width="2.2"/>
<line x1="866.3333333333333" y1="863" x2="874.3333333333333" y2="863" stroke="#8e8e93" stroke-width="1.8" stroke-linecap="round"/>
<line x1="866.3333333333333" y1="867" x2="874.3333333333333" y2="867" stroke="#8e8e93" stroke-width="1.8" stroke-linecap="round"/>
<line x1="866.3333333333333" y1="871" x2="874.3333333333333" y2="871" stroke="#8e8e93" stroke-width="1.8" stroke-linecap="round"/>
<text x="870.3333333333333" y="898" fill="#8e8e93" font-size="12.5" text-anchor="middle">Commande</text>
<rect x="677.0" y="912" width="136" height="5" rx="2.5" fill="#ffffff" fill-opacity=".32"/>
</g>
<text x="1240.0" y="96" fill="#8a8e99" font-size="15" letter-spacing="2.4" text-anchor="middle">FICHE COCKTAIL</text>
<rect x="1040" y="130" width="400" height="810" rx="50" fill="#161618"/>
<rect x="1052" y="142" width="376" height="786" rx="38" fill="#141416"/>
<g clip-path="url(#scr2)">
<rect x="1182.0" y="158" width="116" height="34" rx="17" fill="#0a0a0b"/>
<text x="1082" y="184" fill="#f5f5f7" font-size="17" font-weight="600">9:41</text>
<rect x="1344" y="176" width="4" height="4" rx="1.4" fill="#f5f5f7"/>
<rect x="1350" y="173" width="4" height="7" rx="1.4" fill="#f5f5f7"/>
<rect x="1356" y="170" width="4" height="10" rx="1.4" fill="#f5f5f7"/>
<rect x="1362" y="167" width="4" height="13" rx="1.4" fill="#f5f5f7"/>
<path d="M1374 176 a11 11 0 0 1 15 0 M1378 171 a5.5 5.5 0 0 1 7 0" fill="none" stroke="#f5f5f7" stroke-width="2.2" stroke-linecap="round"/>
<rect x="1396" y="168" width="26" height="13" rx="4" fill="none" stroke="#f5f5f7" stroke-opacity=".55" stroke-width="1.6"/>
<rect x="1398.5" y="170.5" width="19" height="8" rx="2.2" fill="#f5f5f7"/>
<rect x="1052" y="142" width="376" height="330" fill="url(#hero)"/>
<ellipse cx="1190" cy="272" rx="150" ry="120" fill="url(#sheen)"/>
<circle cx="1102" cy="234" r="20" fill="#000000" fill-opacity=".38"/>
<path d="M1108 226 l-8 8 l8 8" fill="none" stroke="#f5f5f7" stroke-width="2.6" stroke-linecap="round" stroke-linejoin="round"/>
<rect x="1052" y="442" width="376" height="486" rx="30" fill="#141416"/>
<text x="1074" y="502" fill="#f5f5f7" font-size="28" font-weight="700">Aperol Spritz</text>
<text x="1406" y="502" fill="#ff5fa2" font-size="24" font-weight="700" text-anchor="end">7,00 €</text>
<rect x="1074" y="522" width="96" height="30" rx="9" fill="#3d1c2c"/>
<text x="1122" y="542" fill="#ff5fa2" font-size="14" text-anchor="middle">11 % vol.</text>
<text x="1074" y="578" fill="#8e8e93" font-size="13" letter-spacing="1.6">INGRÉDIENTS</text>
<circle cx="1080" cy="613" r="3.4" fill="#ff5fa2"/>
<text x="1098" y="618" fill="#f5f5f7" font-size="17">Aperol</text>
<line x1="1074" y1="636" x2="1406" y2="636" stroke="#2a2a2e" stroke-width="1"/>
<circle cx="1080" cy="649" r="3.4" fill="#ff5fa2"/>
<text x="1098" y="654" fill="#f5f5f7" font-size="17">Prosecco</text>
<line x1="1074" y1="672" x2="1406" y2="672" stroke="#2a2a2e" stroke-width="1"/>
<circle cx="1080" cy="685" r="3.4" fill="#ff5fa2"/>
<text x="1098" y="690" fill="#f5f5f7" font-size="17">Eau gazeuse</text>
<line x1="1074" y1="708" x2="1406" y2="708" stroke="#2a2a2e" stroke-width="1"/>
<circle cx="1080" cy="721" r="3.4" fill="#ff5fa2"/>
<text x="1098" y="726" fill="#f5f5f7" font-size="17">Framboises</text>
<line x1="1074" y1="744" x2="1406" y2="744" stroke="#2a2a2e" stroke-width="1"/>
<rect x="1074" y="752" width="332" height="62" rx="18" fill="#ff5fa2"/>
<text x="1240.0" y="792" fill="#1a0b12" font-size="18" font-weight="700" text-anchor="middle">Commander · 7,00 €</text>
<rect x="1052" y="836" width="376" height="92" fill="#161619"/>
<line x1="1052" y1="836" x2="1428" y2="836" stroke="#2a2a2e" stroke-width="1"/>
<rect x="1107.6666666666667" y="859" width="8" height="8" rx="2" fill="#ff5fa2"/>
<rect x="1117.6666666666667" y="859" width="8" height="8" rx="2" fill="#ff5fa2"/>
<rect x="1107.6666666666667" y="869" width="8" height="8" rx="2" fill="#ff5fa2"/>
<rect x="1117.6666666666667" y="869" width="8" height="8" rx="2" fill="#ff5fa2"/>
<text x="1114.6666666666667" y="898" fill="#ff5fa2" font-size="12.5" text-anchor="middle">Carte</text>
<circle cx="1238.0" cy="864" r="8" fill="none" stroke="#8e8e93" stroke-width="2.4"/>
<line x1="1244.0" y1="870" x2="1249.0" y2="875" stroke="#8e8e93" stroke-width="2.4" stroke-linecap="round"/>
<text x="1240.0" y="898" fill="#8e8e93" font-size="12.5" text-anchor="middle">Recherche</text>
<rect x="1356.3333333333333" y="857" width="18" height="18" rx="3.5" fill="none" stroke="#8e8e93" stroke-width="2.2"/>
<line x1="1361.3333333333333" y1="863" x2="1369.3333333333333" y2="863" stroke="#8e8e93" stroke-width="1.8" stroke-linecap="round"/>
<line x1="1361.3333333333333" y1="867" x2="1369.3333333333333" y2="867" stroke="#8e8e93" stroke-width="1.8" stroke-linecap="round"/>
<line x1="1361.3333333333333" y1="871" x2="1369.3333333333333" y2="871" stroke="#8e8e93" stroke-width="1.8" stroke-linecap="round"/>
<text x="1365.3333333333333" y="898" fill="#8e8e93" font-size="12.5" text-anchor="middle">Commande</text>
<rect x="1172.0" y="912" width="136" height="5" rx="2.5" fill="#ffffff" fill-opacity=".32"/>
</g>
<text x="1735.0" y="96" fill="#8a8e99" font-size="15" letter-spacing="2.4" text-anchor="middle">RECHERCHE — AUCUN RÉSULTAT</text>
<rect x="1535" y="130" width="400" height="810" rx="50" fill="#161618"/>
<rect x="1547" y="142" width="376" height="786" rx="38" fill="#141416"/>
<g clip-path="url(#scr3)">
<rect x="1677.0" y="158" width="116" height="34" rx="17" fill="#0a0a0b"/>
<text x="1577" y="184" fill="#f5f5f7" font-size="17" font-weight="600">9:41</text>
<rect x="1839" y="176" width="4" height="4" rx="1.4" fill="#f5f5f7"/>
<rect x="1845" y="173" width="4" height="7" rx="1.4" fill="#f5f5f7"/>
<rect x="1851" y="170" width="4" height="10" rx="1.4" fill="#f5f5f7"/>
<rect x="1857" y="167" width="4" height="13" rx="1.4" fill="#f5f5f7"/>
<path d="M1869 176 a11 11 0 0 1 15 0 M1873 171 a5.5 5.5 0 0 1 7 0" fill="none" stroke="#f5f5f7" stroke-width="2.2" stroke-linecap="round"/>
<rect x="1891" y="168" width="26" height="13" rx="4" fill="none" stroke="#f5f5f7" stroke-opacity=".55" stroke-width="1.6"/>
<rect x="1893.5" y="170.5" width="19" height="8" rx="2.2" fill="#f5f5f7"/>
<text x="1569" y="254" fill="#f5f5f7" font-size="34" font-weight="700">Recherche</text>
<rect x="1569" y="278" width="332" height="50" rx="14" fill="#232326"/>
<circle cx="1595" cy="303" r="7.5" fill="none" stroke="#8e8e93" stroke-width="2"/>
<line x1="1600.5" y1="308.5" x2="1605" y2="313" stroke="#8e8e93" stroke-width="2" stroke-linecap="round"/>
<text x="1617" y="309" fill="#f5f5f7" font-size="17">mojto</text>
<circle cx="1877" cy="303" r="11" fill="#3a3a3e"/>
<path d="M1873 299 l8 8 M1881 299 l-8 8" stroke="#f5f5f7" stroke-width="2" stroke-linecap="round"/>
<circle cx="1735.0" cy="542" r="46" fill="#1e1e21"/>
<circle cx="1731.0" cy="538" r="17" fill="none" stroke="#8e8e93" stroke-width="3"/>
<line x1="1723.0" y1="538" x2="1739.0" y2="538" stroke="#8e8e93" stroke-width="3" stroke-linecap="round"/>
<line x1="1744.0" y1="551" x2="1755.0" y2="562" stroke="#8e8e93" stroke-width="3" stroke-linecap="round"/>
<text x="1735.0" y="650" fill="#f5f5f7" font-size="18" text-anchor="middle">Aucun cocktail ne correspond</text>
<text x="1735.0" y="678" fill="#f5f5f7" font-size="18" text-anchor="middle">à « mojto »</text>
<text x="1735.0" y="716" fill="#8e8e93" font-size="15" text-anchor="middle">Vouliez-vous dire Virgin Mojito ?</text>
<rect x="1620.0" y="748" width="230" height="54" rx="27" fill="none" stroke="#ff5fa2" stroke-width="1.8"/>
<text x="1735.0" y="782" fill="#ff5fa2" font-size="16.5" font-weight="600" text-anchor="middle">Effacer la recherche</text>
<rect x="1547" y="836" width="376" height="92" fill="#161619"/>
<line x1="1547" y1="836" x2="1923" y2="836" stroke="#2a2a2e" stroke-width="1"/>
<rect x="1602.6666666666667" y="859" width="8" height="8" rx="2" fill="#8e8e93"/>
<rect x="1612.6666666666667" y="859" width="8" height="8" rx="2" fill="#8e8e93"/>
<rect x="1602.6666666666667" y="869" width="8" height="8" rx="2" fill="#8e8e93"/>
<rect x="1612.6666666666667" y="869" width="8" height="8" rx="2" fill="#8e8e93"/>
<text x="1609.6666666666667" y="898" fill="#8e8e93" font-size="12.5" text-anchor="middle">Carte</text>
<circle cx="1733.0" cy="864" r="8" fill="none" stroke="#ff5fa2" stroke-width="2.4"/>
<line x1="1739.0" y1="870" x2="1744.0" y2="875" stroke="#ff5fa2" stroke-width="2.4" stroke-linecap="round"/>
<text x="1735.0" y="898" fill="#ff5fa2" font-size="12.5" text-anchor="middle">Recherche</text>
<rect x="1851.3333333333333" y="857" width="18" height="18" rx="3.5" fill="none" stroke="#8e8e93" stroke-width="2.2"/>
<line x1="1856.3333333333333" y1="863" x2="1864.3333333333333" y2="863" stroke="#8e8e93" stroke-width="1.8" stroke-linecap="round"/>
<line x1="1856.3333333333333" y1="867" x2="1864.3333333333333" y2="867" stroke="#8e8e93" stroke-width="1.8" stroke-linecap="round"/>
<line x1="1856.3333333333333" y1="871" x2="1864.3333333333333" y2="871" stroke="#8e8e93" stroke-width="1.8" stroke-linecap="round"/>
<text x="1860.3333333333333" y="898" fill="#8e8e93" font-size="12.5" text-anchor="middle">Commande</text>
<rect x="1667.0" y="912" width="136" height="5" rx="2.5" fill="#ffffff" fill-opacity=".32"/>
</g>
</svg>